<svg width="28" height="28" viewBox="0 0 28 28" fill="none" xmlns="http://www.w3.org/2000/svg">
<path opacity="0.4" d="M25.6667 14C25.6667 20.4433 20.4434 25.6667 14 25.6667C7.55672 25.6667 2.33337 20.4433 2.33337 14C2.33337 7.55669 7.55672 2.33334 14 2.33334C20.4434 2.33334 25.6667 7.55669 25.6667 14Z" fill="#F26222"/>
<path d="M12.1481 9.91421L12.3393 9.57129C13.0782 8.24582 13.4476 7.58307 14 7.58307C14.5523 7.58307 14.9217 8.24581 15.6606 9.57129L15.8518 9.91422C16.0617 10.2909 16.1667 10.4792 16.3304 10.6035C16.4941 10.7277 16.698 10.7738 17.1057 10.8661L17.4769 10.9501C18.9117 11.2747 19.6291 11.437 19.7998 11.9859C19.9705 12.5348 19.4814 13.1067 18.5032 14.2505L18.2502 14.5464C17.9722 14.8715 17.8332 15.034 17.7707 15.2351C17.7082 15.4361 17.7292 15.653 17.7712 16.0866L17.8095 16.4815C17.9574 18.0076 18.0313 18.7706 17.5845 19.1099C17.1376 19.4491 16.4659 19.1398 15.1225 18.5213L14.7749 18.3612C14.3932 18.1855 14.2023 18.0976 14 18.0976C13.7976 18.0976 13.6068 18.1855 13.225 18.3612L12.8774 18.5213C11.534 19.1398 10.8623 19.4491 10.4155 19.1099C9.96861 18.7706 10.0426 18.0076 10.1904 16.4815L10.2287 16.0866C10.2707 15.653 10.2917 15.4361 10.2292 15.2351C10.1667 15.034 10.0277 14.8715 9.74975 14.5464L9.49668 14.2505C8.51852 13.1067 8.02944 12.5348 8.20012 11.9859C8.3708 11.437 9.08822 11.2747 10.523 10.9501L10.8942 10.8661C11.302 10.7738 11.5058 10.7277 11.6695 10.6035C11.8332 10.4792 11.9382 10.2909 12.1481 9.91421Z" fill="#F26222"/>
</svg>
