<svg width="28" height="28" viewBox="0 0 28 28" fill="none" xmlns="http://www.w3.org/2000/svg">
<path d="M8.09704 2.33334C8.5822 2.33334 8.97551 2.71159 8.97551 3.17817V4.88236C9.75474 4.86783 10.6282 4.86783 11.6109 4.86783H16.2961C17.2789 4.86783 18.1523 4.86783 18.9316 4.88236V3.17817C18.9316 2.71159 19.3249 2.33334 19.81 2.33334C20.2952 2.33334 20.6885 2.71159 20.6885 3.17817V4.9571C22.3744 5.08693 23.4811 5.40556 24.2943 6.18753C25.1074 6.9695 25.4387 8.03387 25.5737 9.65518L25.6667 10.5H3.41202H2.33337V9.65518C2.46837 8.03387 2.79969 6.9695 3.6128 6.18753C4.42592 5.40556 5.53268 5.08693 7.21856 4.9571V3.17817C7.21856 2.71159 7.61187 2.33334 8.09704 2.33334Z" fill="#F26222"/>
<path opacity="0.4" d="M25.6667 16.3333V14C25.6667 13.0211 25.6629 11.2761 25.6478 10.4999H2.3446C2.32955 11.2761 2.33335 13.0211 2.33335 14V16.3333C2.33335 20.7331 2.33335 22.933 3.70018 24.2998C5.06702 25.6667 7.26691 25.6667 11.6667 25.6667H16.3334C20.7331 25.6667 22.933 25.6667 24.2998 24.2998C25.6667 22.933 25.6667 20.7331 25.6667 16.3333Z" fill="#F26222"/>
<path d="M21 19.8333C21 20.4777 20.4776 21 19.8333 21C19.189 21 18.6666 20.4777 18.6666 19.8333C18.6666 19.189 19.189 18.6667 19.8333 18.6667C20.4776 18.6667 21 19.189 21 19.8333Z" fill="#F26222"/>
<path d="M21 15.1667C21 15.811 20.4776 16.3333 19.8333 16.3333C19.189 16.3333 18.6666 15.811 18.6666 15.1667C18.6666 14.5223 19.189 14 19.8333 14C20.4776 14 21 14.5223 21 15.1667Z" fill="#F26222"/>
<path d="M15.1667 19.8333C15.1667 20.4777 14.6444 21 14 21C13.3557 21 12.8334 20.4777 12.8334 19.8333C12.8334 19.189 13.3557 18.6667 14 18.6667C14.6444 18.6667 15.1667 19.189 15.1667 19.8333Z" fill="#F26222"/>
<path d="M15.1667 15.1667C15.1667 15.811 14.6444 16.3333 14 16.3333C13.3557 16.3333 12.8334 15.811 12.8334 15.1667C12.8334 14.5223 13.3557 14 14 14C14.6444 14 15.1667 14.5223 15.1667 15.1667Z" fill="#F26222"/>
<path d="M9.33333 19.8333C9.33333 20.4777 8.811 21 8.16667 21C7.52233 21 7 20.4777 7 19.8333C7 19.189 7.52233 18.6667 8.16667 18.6667C8.811 18.6667 9.33333 19.189 9.33333 19.8333Z" fill="#F26222"/>
<path d="M9.33333 15.1667C9.33333 15.811 8.811 16.3333 8.16667 16.3333C7.52233 16.3333 7 15.811 7 15.1667C7 14.5223 7.52233 14 8.16667 14C8.811 14 9.33333 14.5223 9.33333 15.1667Z" fill="#F26222"/>
</svg>
