<svg width="28" height="28" viewBox="0 0 28 28" fill="none" xmlns="http://www.w3.org/2000/svg">
<path opacity="0.4" d="M25.4779 12.9807L25.2105 15.8218C24.7699 20.5032 24.5496 22.8439 23.1699 24.2553C21.7902 25.6666 19.7223 25.6666 15.5866 25.6666H12.4134C8.27769 25.6666 6.20983 25.6666 4.83011 24.2553C3.45039 22.8439 3.2301 20.5032 2.7895 15.8218L2.52211 12.9807C2.3121 10.7493 2.2071 9.6336 2.58882 9.1724C2.79531 8.92291 3.0761 8.77005 3.37632 8.74368C3.9313 8.69494 4.62826 9.48837 6.02218 11.0752C6.74306 11.8959 7.1035 12.3062 7.5056 12.3698C7.7284 12.405 7.95541 12.3688 8.16114 12.2652C8.53243 12.0784 8.77998 11.5711 9.27508 10.5566L11.8848 5.20898C12.8203 3.29187 13.2881 2.33331 14 2.33331C14.7119 2.33331 15.1797 3.29187 16.1152 5.20898L18.7249 10.5566C19.22 11.5711 19.4676 12.0784 19.8389 12.2652C20.0446 12.3688 20.2716 12.405 20.4944 12.3698C20.8965 12.3062 21.2569 11.8959 21.9778 11.0752C23.3717 9.48837 24.0687 8.69494 24.6237 8.74368C24.9239 8.77005 25.2047 8.92291 25.4112 9.1724C25.7929 9.6336 25.6879 10.7493 25.4779 12.9807Z" fill="#F26222"/>
<path d="M15.1111 14.8154L14.9964 14.6096C14.5531 13.8143 14.3314 13.4167 14 13.4167C13.6686 13.4167 13.4469 13.8143 13.0036 14.6096L13.0036 14.6096L12.8889 14.8154L12.8889 14.8154C12.7629 15.0414 12.6999 15.1544 12.6017 15.2289C12.5035 15.3035 12.3812 15.3312 12.1366 15.3865L11.9138 15.4369C11.0529 15.6317 10.6225 15.7291 10.5201 16.0584C10.4177 16.3877 10.7111 16.7309 11.298 17.4172L11.4499 17.5947C11.6166 17.7897 11.7 17.8873 11.7376 18.0079C11.7751 18.1285 11.7625 18.2586 11.7372 18.5188L11.7143 18.7557C11.6256 19.6714 11.5812 20.1292 11.8493 20.3328C12.1174 20.5363 12.5204 20.3507 13.3265 19.9796L13.3265 19.9796L13.535 19.8836L13.535 19.8836C13.7641 19.7781 13.8786 19.7254 14 19.7254C14.1214 19.7254 14.2359 19.7781 14.465 19.8836L14.465 19.8836L14.6735 19.9796C15.4796 20.3507 15.8826 20.5363 16.1507 20.3328C16.4188 20.1292 16.3744 19.6714 16.2857 18.7557V18.7557L16.2628 18.5188C16.2375 18.2586 16.2249 18.1285 16.2624 18.0079C16.3 17.8873 16.3834 17.7897 16.5501 17.5947L16.702 17.4172L16.702 17.4172C17.2889 16.7309 17.5823 16.3877 17.4799 16.0584C17.3775 15.7291 16.947 15.6317 16.0862 15.4369L15.8634 15.3865C15.6188 15.3312 15.4965 15.3035 15.3983 15.2289C15.3001 15.1544 15.2371 15.0414 15.1111 14.8154Z" fill="#F26222"/>
</svg>
