<svg width="28" height="28" viewBox="0 0 28 28" fill="none" xmlns="http://www.w3.org/2000/svg">
<path opacity="0.4" fill-rule="evenodd" clip-rule="evenodd" d="M11.3749 2.33334H10.2083C6.90842 2.33334 5.2585 2.33334 4.23338 3.35847C3.20825 4.3836 3.20825 6.03351 3.20825 9.33334V24.7917H18.3749V20.7084V18.9584V9.33334C18.3749 6.03351 18.3749 4.3836 17.3498 3.35847C16.3247 2.33334 14.6748 2.33334 11.3749 2.33334Z" fill="#F26222"/>
<path d="M3.20841 24.7917H2.04175C1.5585 24.7917 1.16675 25.1834 1.16675 25.6667C1.16675 26.1499 1.5585 26.5417 2.04175 26.5417H19.6858C20.169 26.5417 20.5608 26.1499 20.5608 25.6667C20.5608 25.1834 20.169 24.7917 19.6858 24.7917H18.3751H3.20841Z" fill="#F26222"/>
<path d="M9.33333 7H12.8333C13.9333 7 14.4832 7 14.825 7.34171C15.1667 7.68342 15.1667 8.23339 15.1667 9.33333C15.1667 10.4333 15.1667 10.9832 14.825 11.325C14.4832 11.6667 13.9333 11.6667 12.8333 11.6667H9.33333C8.23339 11.6667 7.68342 11.6667 7.34171 11.325C7 10.9832 7 10.4333 7 9.33333C7 8.23339 7 7.68342 7.34171 7.34171C7.68342 7 8.23339 7 9.33333 7Z" fill="#F26222"/>
<path d="M8.16667 18.9583C7.68342 18.9583 7.29167 19.3501 7.29167 19.8333C7.29167 20.3166 7.68342 20.7083 8.16667 20.7083H14C14.4832 20.7083 14.875 20.3166 14.875 19.8333C14.875 19.3501 14.4832 18.9583 14 18.9583H8.16667Z" fill="#F26222"/>
<path d="M18.375 20.7084H20.2083C20.6456 20.7084 21 21.0628 21 21.5V21.5834C21 23.0331 22.1753 24.2084 23.625 24.2084C25.0747 24.2084 26.25 23.0331 26.25 21.5834V8.86873C26.25 8.68595 26.25 8.55985 26.2431 8.43687C26.1782 7.28073 25.6575 6.19749 24.7953 5.42455C24.7036 5.34233 24.6051 5.26356 24.4624 5.1494L23.0049 3.98343C22.6276 3.68155 22.077 3.74273 21.7751 4.12008C21.4732 4.49743 21.5344 5.04807 21.9117 5.34995L23.3503 6.50083C23.5189 6.63568 23.5766 6.68229 23.6272 6.72761C24.1445 7.19138 24.4569 7.84132 24.4959 8.535C24.4997 8.6028 24.5 8.677 24.5 8.89287V9.33332H23.625C22.6585 9.33332 21.875 10.1168 21.875 11.0833V13.9053C21.875 14.6586 22.357 15.3273 23.0716 15.5655L24.5 16.0417V21.5834C24.5 22.0666 24.1082 22.4584 23.625 22.4584C23.1418 22.4584 22.75 22.0666 22.75 21.5834V21.5C22.75 20.0963 21.6121 18.9584 20.2083 18.9584H18.375V20.7084Z" fill="#F26222"/>
</svg>
