<svg width="28" height="28" viewBox="0 0 28 28" fill="none" xmlns="http://www.w3.org/2000/svg">
<path opacity="0.4" d="M13.0211 12.8131C11.6966 15.5544 10.1682 18.1653 8.53644 20.6891C7.30446 20.3873 5.96366 20.8659 5.22392 21.9864C4.28294 23.4088 4.67454 25.3261 6.09693 26.2671C7.52203 27.2081 9.43938 26.8165 10.3777 25.3914C11.1201 24.2737 11.0331 22.8513 10.2716 21.8369C12.4065 18.6767 14.7345 15.6143 17.4188 12.8131L13.0211 12.8131ZM9.10211 24.5483C8.62887 25.2663 7.66067 25.4621 6.94273 24.9861C6.22474 24.5129 6.02621 23.5448 6.49941 22.8268C6.97536 22.1088 7.94356 21.9129 8.66155 22.3862C9.37953 22.8621 9.57806 23.8303 9.10211 24.5483ZM22.9617 5.53824C23.1514 5.53824 23.3052 5.38446 23.3052 5.19481C23.3052 5.00515 23.1514 4.85137 22.9617 4.85137H22.3196V4.65685H11.6042V4.85137H10.9612C10.7716 4.85137 10.6178 5.00515 10.6178 5.19481C10.6178 5.38446 10.7716 5.53824 10.9612 5.53824H11.6042V6.10115H10.9612C10.7716 6.10115 10.6178 6.25492 10.6178 6.44458C10.6178 6.63424 10.7716 6.78801 10.9612 6.78801H11.6042V6.98218H22.3195V6.78801H22.9617C23.1513 6.78801 23.3051 6.63424 23.3051 6.44458C23.3051 6.25492 23.1513 6.10115 22.9617 6.10115H22.3195V5.53824H22.9617Z" fill="#F26222"/>
<path d="M23.145 1.16666H11.1445C10.9548 1.16666 10.801 1.32043 10.801 1.51009V3.7218C10.801 3.91145 10.9548 4.06523 11.1445 4.06523H23.145C23.3346 4.06523 23.4884 3.91145 23.4884 3.7218V1.51009C23.4884 1.32043 23.3346 1.16666 23.145 1.16666ZM23.145 7.4798H11.1445C10.9548 7.4798 10.801 7.63357 10.801 7.82323V11.8787C10.801 12.0683 10.9548 12.2221 11.1445 12.2221H23.145C23.3346 12.2221 23.4884 12.0683 23.4884 11.8787V7.82323C23.4884 7.63357 23.3346 7.4798 23.145 7.4798ZM17.1447 10.9837C16.5192 10.9837 16.012 10.4765 16.012 9.85094C16.012 9.22538 16.5192 8.7182 17.1447 8.7182C17.7703 8.7182 18.2775 9.22543 18.2775 9.85094C18.2775 10.4765 17.7703 10.9837 17.1447 10.9837Z" fill="#F26222"/>
</svg>
